<svg width="507" height="84" viewBox="0 0 507 84" fill="none" xmlns="http://www.w3.org/2000/svg">
<path fill-rule="evenodd" clip-rule="evenodd" d="M61.344 1.856C60.448 2.66667 60 3.69067 60 4.928V46.016C63.0293 46.016 65.3333 45.44 66.912 44.288C68.4907 43.136 69.28 41.4507 69.28 39.232V28.928H81.44C83.1467 28.928 84.4053 29.44 85.216 30.464C86.0693 31.4453 86.496 33.0027 86.496 35.136V46.016C89.568 46.016 91.8933 45.44 93.472 44.288C95.0933 43.136 95.904 41.4507 95.904 39.232V34.816C95.904 30.208 94.048 27.072 90.336 25.408V25.152C92.4267 24.1707 93.9627 22.8267 94.944 21.12C95.968 19.4133 96.48 17.3013 96.48 14.784C96.48 10.2613 95.1787 6.784 92.576 4.352C90.016 1.87733 86.3467 0.639999 81.568 0.639999H64.736C63.4133 0.639999 62.2827 1.04533 61.344 1.856ZM85.536 19.328C84.512 20.3947 83.0187 20.928 81.056 20.928H69.28V8.64H81.056C83.1467 8.64 84.6613 9.13067 85.6 10.112C86.5813 11.0933 87.072 12.6293 87.072 14.72C87.072 16.7253 86.56 18.2613 85.536 19.328Z" fill="white"/>
<path fill-rule="evenodd" clip-rule="evenodd" d="M107.394 44.48C109.698 45.504 112.258 46.016 115.074 46.016C117.89 46.016 120.45 45.504 122.754 44.48C125.058 43.456 126.871 42.048 128.194 40.256C129.517 38.4213 130.178 36.352 130.178 34.048V25.536C130.178 23.1893 129.538 21.056 128.258 19.136C126.978 17.1733 125.186 15.6373 122.882 14.528C120.578 13.4187 117.975 12.864 115.074 12.864C112.173 12.864 109.57 13.4187 107.266 14.528C104.962 15.6373 103.17 17.1733 101.89 19.136C100.61 21.056 99.97 23.1893 99.97 25.536V34.048C99.97 36.352 100.631 38.4213 101.954 40.256C103.277 42.048 105.09 43.456 107.394 44.48ZM119.746 37.12C118.637 38.016 117.079 38.464 115.074 38.464C113.069 38.464 111.511 38.016 110.402 37.12C109.293 36.224 108.738 34.9867 108.738 33.408V25.984C108.738 24.32 109.293 22.976 110.402 21.952C111.554 20.928 113.111 20.416 115.074 20.416C117.037 20.416 118.573 20.928 119.682 21.952C120.834 22.976 121.41 24.32 121.41 25.984V33.408C121.41 34.9867 120.855 36.224 119.746 37.12Z" fill="white"/>
<path fill-rule="evenodd" clip-rule="evenodd" d="M136.488 1.6C135.038 2.624 134.312 4.032 134.312 5.824V46.016C137.214 46.016 139.283 45.7173 140.521 45.12C141.758 44.48 142.376 43.6053 142.376 42.496C141.779 41.7707 141.374 41.216 141.16 40.832L141.48 40.576C142.803 42.368 144.275 43.7333 145.896 44.672C147.561 45.568 149.566 46.016 151.913 46.016C154.003 46.016 155.966 45.5253 157.801 44.544C159.678 43.52 161.171 42.1333 162.281 40.384C163.433 38.592 164.009 36.5867 164.009 34.368V24.448C164.009 21.0347 162.878 18.2613 160.617 16.128C158.355 13.952 155.326 12.864 151.529 12.864C150.035 12.864 148.35 13.1627 146.473 13.76C144.638 14.3573 143.166 15.1893 142.057 16.256L141.801 15.936C142.014 15.5947 142.483 15.168 143.208 14.656V0.0639992C140.222 0.0639992 137.982 0.575999 136.488 1.6ZM153.641 37.248C152.617 38.0587 151.123 38.464 149.16 38.464C147.368 38.464 145.897 38.0587 144.745 37.248C143.635 36.3947 143.081 35.328 143.081 34.048V24.832C143.081 23.5947 143.635 22.5493 144.745 21.696C145.897 20.8427 147.368 20.416 149.16 20.416C151.123 20.416 152.617 20.8213 153.641 21.632C154.707 22.4427 155.241 23.5947 155.241 25.088V33.728C155.241 35.264 154.707 36.4373 153.641 37.248Z" fill="white"/>
<path fill-rule="evenodd" clip-rule="evenodd" d="M177.726 44.416C179.987 45.4827 182.441 46.016 185.086 46.016C187.561 46.016 189.801 45.6533 191.806 44.928C193.854 44.2027 195.454 43.264 196.606 42.112C197.758 40.96 198.334 39.808 198.334 38.656C198.334 37.248 197.865 36.1813 196.926 35.456C195.987 34.7307 194.643 34.368 192.894 34.368C192.467 34.368 191.827 34.4107 190.974 34.496C190.974 35.8187 190.505 36.928 189.566 37.824C188.627 38.6773 187.155 39.104 185.15 39.104C183.102 39.104 181.545 38.5707 180.478 37.504C179.454 36.3947 178.942 34.9867 178.942 33.28V32.384H195.07C196.265 32.384 197.246 32.0427 198.014 31.36C198.782 30.6347 199.166 29.76 199.166 28.736V25.28C199.166 22.8907 198.547 20.7573 197.31 18.88C196.073 16.96 194.366 15.488 192.19 14.464C190.057 13.3973 187.71 12.864 185.15 12.864C182.547 12.864 180.115 13.4187 177.854 14.528C175.593 15.6373 173.779 17.1947 172.414 19.2C171.091 21.1627 170.43 23.3387 170.43 25.728V33.92C170.43 36.1813 171.091 38.2293 172.414 40.064C173.737 41.8987 175.507 43.3493 177.726 44.416ZM191.23 25.28V26.176H178.942V25.28C178.942 23.5733 179.497 22.2293 180.606 21.248C181.758 20.224 183.251 19.712 185.086 19.712C186.921 19.712 188.393 20.224 189.502 21.248C190.654 22.2293 191.23 23.5733 191.23 25.28Z" fill="white"/>
<path d="M216.074 22.4C217.652 21.0773 219.721 20.416 222.281 20.416C224.287 20.416 225.887 20.7573 227.081 21.44C227.721 20.544 228.042 19.4987 228.042 18.304C228.042 16.7253 227.551 15.424 226.57 14.4C225.588 13.376 224.137 12.864 222.217 12.864C218.207 12.864 214.857 14.9333 212.169 19.072L211.721 18.816C212.148 18.048 212.682 17.3227 213.322 16.64V12.864C210.548 12.864 208.458 13.44 207.049 14.592C205.641 15.744 204.938 17.3867 204.938 19.52V46.016C207.924 46.016 210.122 45.632 211.529 44.864C212.98 44.0533 213.706 42.7307 213.706 40.896V27.392C213.706 25.3867 214.495 23.7227 216.074 22.4Z" fill="white"/>
<path d="M239.626 42.88C241.333 44.9707 244 46.016 247.626 46.016C249.376 46.016 250.848 45.76 252.042 45.248C253.28 44.6933 254.197 44.0107 254.794 43.2C255.392 42.3893 255.691 41.5573 255.691 40.704C255.691 40.064 255.541 39.424 255.243 38.784C254.986 38.144 254.624 37.6107 254.154 37.184C252.576 38.0373 251.04 38.464 249.547 38.464C248.181 38.464 247.221 38.1653 246.667 37.568C246.112 36.928 245.835 35.904 245.835 34.496V19.904H248.715C250.677 19.904 252.085 19.4133 252.939 18.432C253.792 17.408 254.219 15.744 254.219 13.44H245.706V3.264C242.848 3.264 240.714 3.66933 239.307 4.48C237.898 5.248 237.195 6.54933 237.195 8.384V13.44H234.699C233.376 13.44 232.309 13.9733 231.499 15.04C230.688 16.1067 230.283 17.728 230.283 19.904H237.066V34.816C237.066 38.1013 237.92 40.7893 239.626 42.88Z" fill="white"/>
<path fill-rule="evenodd" clip-rule="evenodd" d="M265.956 44.48C268.26 45.504 270.82 46.016 273.637 46.016C276.452 46.016 279.012 45.504 281.316 44.48C283.62 43.456 285.434 42.048 286.757 40.256C288.079 38.4213 288.741 36.352 288.741 34.048V25.536C288.741 23.1893 288.1 21.056 286.82 19.136C285.54 17.1733 283.749 15.6373 281.445 14.528C279.141 13.4187 276.538 12.864 273.637 12.864C270.735 12.864 268.132 13.4187 265.828 14.528C263.524 15.6373 261.733 17.1733 260.453 19.136C259.173 21.056 258.533 23.1893 258.533 25.536V34.048C258.533 36.352 259.194 38.4213 260.516 40.256C261.839 42.048 263.652 43.456 265.956 44.48ZM278.309 37.12C277.199 38.016 275.642 38.464 273.637 38.464C271.631 38.464 270.074 38.016 268.965 37.12C267.855 36.224 267.301 34.9867 267.301 33.408V25.984C267.301 24.32 267.855 22.976 268.965 21.952C270.117 20.928 271.674 20.416 273.637 20.416C275.599 20.416 277.135 20.928 278.245 21.952C279.396 22.976 279.973 24.32 279.973 25.984V33.408C279.973 34.9867 279.418 36.224 278.309 37.12Z" fill="white"/>
<path d="M313.56 1.92C311.853 3.15733 311 4.82133 311 6.912V46.016C317.101 46.016 320.152 43.776 320.152 39.296V20.928L317.848 14.528L318.616 14.208L329.496 43.456C329.795 44.224 330.285 44.8427 330.968 45.312C331.651 45.7813 332.419 46.016 333.272 46.016C334.083 46.016 334.829 45.7813 335.512 45.312C336.195 44.8427 336.685 44.2453 336.984 43.52L347.864 14.336L348.632 14.592L346.328 20.992V39.296C346.328 43.776 349.379 46.016 355.48 46.016V6.976C355.48 4.88533 354.627 3.22133 352.92 1.984C351.213 0.704 348.931 0.0639992 346.072 0.0639992L332.312 37.312L331.608 36.992L333.208 32.64L320.408 0C317.549 0 315.267 0.640001 313.56 1.92Z" fill="white"/>
<path fill-rule="evenodd" clip-rule="evenodd" d="M367.236 44.8C369.071 45.6107 371.033 46.016 373.124 46.016C375.684 46.016 377.732 45.6533 379.268 44.928C380.804 44.16 382.276 43.0507 383.684 41.6L384.004 41.92C383.62 42.3893 383.108 42.9227 382.468 43.52V46.016C385.284 46.016 387.332 45.568 388.612 44.672C389.935 43.776 390.596 42.3253 390.596 40.32V24.768C390.596 21.0987 389.337 18.1973 386.82 16.064C384.303 13.9307 380.719 12.864 376.068 12.864C373.679 12.864 371.481 13.184 369.476 13.824C367.513 14.4213 365.956 15.2747 364.804 16.384C363.652 17.4507 363.076 18.6453 363.076 19.968C363.076 20.8213 363.417 21.6107 364.1 22.336C364.825 23.0187 365.7 23.488 366.724 23.744C367.62 22.4213 368.793 21.4187 370.244 20.736C371.695 20.0533 373.359 19.712 375.236 19.712C377.369 19.712 379.012 20.2027 380.164 21.184C381.359 22.1227 381.956 23.4027 381.956 25.024V25.856C382.468 26.1973 383.172 26.7733 384.068 27.584L383.748 27.968C382.425 26.816 380.996 25.9413 379.46 25.344C377.967 24.7467 376.239 24.448 374.276 24.448C371.929 24.448 369.753 24.8747 367.748 25.728C365.785 26.5813 364.207 27.84 363.012 29.504C361.817 31.1253 361.22 33.0667 361.22 35.328C361.22 37.5893 361.775 39.5307 362.884 41.152C363.993 42.7307 365.444 43.9467 367.236 44.8ZM380.356 38.592C379.204 39.36 377.604 39.744 375.556 39.744C373.764 39.744 372.335 39.36 371.268 38.592C370.244 37.824 369.732 36.7147 369.732 35.264C369.732 33.856 370.244 32.7467 371.268 31.936C372.335 31.1253 373.764 30.72 375.556 30.72C377.561 30.72 379.14 31.1253 380.292 31.936C381.487 32.7467 382.084 33.856 382.084 35.264C382.084 36.7147 381.508 37.824 380.356 38.592Z" fill="white"/>
<path d="M408.448 22.4C410.027 21.0773 412.096 20.416 414.656 20.416C416.662 20.416 418.262 20.7573 419.457 21.44C420.096 20.544 420.417 19.4987 420.417 18.304C420.417 16.7253 419.926 15.424 418.944 14.4C417.963 13.376 416.513 12.864 414.592 12.864C410.582 12.864 407.233 14.9333 404.544 19.072L404.096 18.816C404.523 18.048 405.056 17.3227 405.697 16.64V12.864C402.923 12.864 400.832 13.44 399.424 14.592C398.017 15.744 397.312 17.3867 397.312 19.52V46.016C400.299 46.016 402.496 45.632 403.905 44.864C405.355 44.0533 406.081 42.7307 406.081 40.896V27.392C406.081 25.3867 406.87 23.7227 408.448 22.4Z" fill="white"/>
<path d="M425.538 9.024C426.647 9.96267 428.012 10.432 429.634 10.432C431.255 10.432 432.599 9.96267 433.665 9.024C434.775 8.04267 435.329 6.784 435.329 5.248C435.329 3.712 434.775 2.47467 433.665 1.536C432.599 0.554666 431.255 0.0639992 429.634 0.0639992C428.012 0.0639992 426.647 0.554666 425.538 1.536C424.471 2.47467 423.938 3.712 423.938 5.248C423.938 6.784 424.471 8.04267 425.538 9.024Z" fill="white"/>
<path d="M427.393 14.08C425.943 14.848 425.217 16.1493 425.217 17.984V46.016C428.161 46.016 430.359 45.632 431.81 44.864C433.26 44.0533 433.986 42.7307 433.986 40.896V12.864C431.042 12.864 428.844 13.2693 427.393 14.08Z" fill="white"/>
<path d="M444.487 14.592C443.079 15.744 442.375 17.3867 442.375 19.52V46.016C445.362 46.016 447.559 45.632 448.967 44.864C450.418 44.0533 451.143 42.7307 451.143 40.896V27.392C451.143 25.3867 451.783 23.7227 453.063 22.4C454.343 21.0773 456.007 20.416 458.055 20.416C459.719 20.416 460.999 20.9067 461.895 21.888C462.834 22.8693 463.303 24.0853 463.303 25.536V46.016C466.247 46.016 468.444 45.632 469.895 44.864C471.346 44.0533 472.071 42.7307 472.071 40.896V24.192C472.071 22.0587 471.602 20.1387 470.663 18.432C469.724 16.6827 468.423 15.3173 466.759 14.336C465.138 13.3547 463.26 12.864 461.127 12.864C458.695 12.864 456.476 13.4187 454.471 14.528C452.508 15.5947 450.887 17.1093 449.607 19.072L449.159 18.816C449.586 18.048 450.119 17.3227 450.759 16.64V12.864C447.986 12.864 445.895 13.44 444.487 14.592Z" fill="white"/>
<path d="M482.013 43.84C484.53 45.2907 487.965 46.016 492.316 46.016C495.26 46.016 497.82 45.632 499.996 44.864C502.172 44.0533 503.836 42.9227 504.988 41.472C506.141 40.0213 506.716 38.3787 506.716 36.544C506.716 33.5573 505.629 31.1893 503.453 29.44C501.319 27.6907 497.799 26.2827 492.892 25.216C490.631 24.7467 489.01 24.2773 488.029 23.808C487.09 23.3387 486.621 22.6987 486.621 21.888C486.621 21.1627 487.197 20.544 488.349 20.032C489.5 19.52 490.823 19.264 492.316 19.264C494.407 19.264 496.007 19.6693 497.117 20.48C498.268 21.248 499.122 22.4427 499.677 24.064C501.767 24.0213 503.26 23.744 504.156 23.232C505.052 22.6773 505.5 21.8027 505.5 20.608C505.5 18.2613 504.22 16.384 501.66 14.976C499.1 13.568 495.772 12.864 491.677 12.864C487.495 12.864 484.231 13.7173 481.884 15.424C479.581 17.088 478.428 19.3067 478.428 22.08C478.428 24.0427 478.855 25.6213 479.708 26.816C480.562 28.0107 481.884 29.0133 483.677 29.824C485.511 30.592 488.071 31.36 491.357 32.128C494.172 32.8107 496.05 33.472 496.988 34.112C497.927 34.752 498.397 35.4987 498.397 36.352C498.397 37.3333 497.799 38.08 496.604 38.592C495.453 39.104 493.81 39.36 491.677 39.36C489.842 39.36 488.242 38.8907 486.876 37.952C485.511 36.9707 484.658 35.6267 484.316 33.92C482.183 33.92 480.626 34.304 479.645 35.072C478.706 35.84 478.237 36.7787 478.237 37.888C478.237 40.3627 479.495 42.3467 482.013 43.84Z" fill="white"/>
<path fill-rule="evenodd" clip-rule="evenodd" d="M71.6235 64.1315C72.8415 63.0395 73.4505 61.517 73.4505 59.564C73.4505 57.653 72.852 56.141 71.655 55.028C70.458 53.894 68.6415 53.327 66.2055 53.327H60.063V75.44H61.4805V65.738H66.2055C68.5995 65.738 70.4055 65.2025 71.6235 64.1315ZM72.033 59.564C72.033 62.84 70.0905 64.478 66.2055 64.478H61.4805V54.587H66.2055C68.2425 54.587 69.723 55.0175 70.647 55.8785C71.571 56.7185 72.033 57.947 72.033 59.564Z" fill="white"/>
<path d="M85.9528 58.997C84.8818 59.648 84.1363 60.6035 83.7163 61.8635V58.3355H82.2988V75.44H83.7163V65.5805C83.7163 63.4175 84.2728 61.8635 85.3858 60.9185C86.4988 59.9525 87.8953 59.4695 89.5753 59.4695H90.0478V57.989C88.3888 57.989 87.0238 58.325 85.9528 58.997Z" fill="white"/>
<path fill-rule="evenodd" clip-rule="evenodd" d="M101.564 74.621C102.845 75.335 104.284 75.692 105.88 75.692C107.476 75.692 108.914 75.335 110.195 74.621C111.497 73.907 112.516 72.8885 113.251 71.5655C113.986 70.2215 114.354 68.657 114.354 66.872C114.354 65.087 113.986 63.533 113.251 62.21C112.537 60.887 111.539 59.879 110.258 59.186C108.977 58.472 107.539 58.115 105.943 58.115C104.347 58.115 102.898 58.472 101.596 59.186C100.315 59.879 99.307 60.8975 98.572 62.2415C97.837 63.5645 97.4695 65.108 97.4695 66.872C97.4695 68.657 97.8265 70.2215 98.5405 71.5655C99.2755 72.8885 100.283 73.907 101.564 74.621ZM109.345 73.613C108.274 74.159 107.119 74.432 105.88 74.432C104.641 74.432 103.486 74.159 102.415 73.613C101.365 73.046 100.514 72.1955 99.8635 71.0615C99.2335 69.9275 98.9185 68.531 98.9185 66.872C98.9185 65.234 99.244 63.848 99.895 62.714C100.546 61.58 101.397 60.74 102.447 60.194C103.518 59.627 104.672 59.3435 105.911 59.3435C107.15 59.3435 108.305 59.627 109.376 60.194C110.447 60.74 111.309 61.58 111.96 62.714C112.611 63.848 112.936 65.234 112.936 66.872C112.936 68.531 112.611 69.9275 111.96 71.0615C111.309 72.1955 110.437 73.046 109.345 73.613Z" fill="white"/>
<path fill-rule="evenodd" clip-rule="evenodd" d="M135.664 59.438C134.404 58.556 132.871 58.115 131.065 58.115C129.469 58.115 128.041 58.472 126.781 59.186C125.542 59.9 124.566 60.9185 123.852 62.2415C123.159 63.5645 122.812 65.108 122.812 66.872C122.812 68.636 123.159 70.19 123.852 71.534C124.566 72.857 125.542 73.886 126.781 74.621C128.041 75.335 129.469 75.692 131.065 75.692C132.85 75.692 134.373 75.251 135.633 74.369C136.914 73.466 137.806 72.332 138.31 70.967V75.9755C138.31 77.3195 138.027 78.485 137.46 79.472C136.914 80.48 136.158 81.2465 135.192 81.7715C134.226 82.3175 133.144 82.5905 131.947 82.5905C130.225 82.5905 128.787 82.181 127.632 81.362C126.477 80.564 125.689 79.4825 125.269 78.1175H123.852C124.293 79.8605 125.217 81.2465 126.624 82.2755C128.031 83.3045 129.805 83.819 131.947 83.819C133.396 83.819 134.709 83.4935 135.885 82.8425C137.061 82.2125 137.995 81.299 138.688 80.102C139.381 78.926 139.728 77.5505 139.728 75.9755V58.3355H138.31V62.777C137.806 61.412 136.924 60.299 135.664 59.438ZM137.365 62.9345C137.995 64.0685 138.31 65.381 138.31 66.872C138.31 68.384 138.006 69.7175 137.397 70.8725C136.788 72.0065 135.937 72.8885 134.845 73.5185C133.774 74.1275 132.577 74.432 131.254 74.432C129.889 74.432 128.671 74.1275 127.6 73.5185C126.55 72.9095 125.731 72.038 125.143 70.904C124.555 69.77 124.261 68.426 124.261 66.872C124.261 65.318 124.555 63.974 125.143 62.84C125.731 61.706 126.55 60.845 127.6 60.257C128.65 59.648 129.868 59.3435 131.254 59.3435C132.577 59.3435 133.774 59.6585 134.845 60.2885C135.916 60.8975 136.756 61.7795 137.365 62.9345Z" fill="white"/>
<path d="M153.583 58.997C152.512 59.648 151.767 60.6035 151.347 61.8635V58.3355H149.929V75.44H151.347V65.5805C151.347 63.4175 151.903 61.8635 153.016 60.9185C154.129 59.9525 155.526 59.4695 157.206 59.4695H157.678V57.989C156.019 57.989 154.654 58.325 153.583 58.997Z" fill="white"/>
<path fill-rule="evenodd" clip-rule="evenodd" d="M166.139 62.2415C165.446 63.5645 165.1 65.108 165.1 66.872C165.1 68.636 165.446 70.19 166.139 71.534C166.853 72.857 167.83 73.886 169.069 74.621C170.329 75.335 171.757 75.692 173.353 75.692C175.138 75.692 176.66 75.251 177.92 74.369C179.201 73.466 180.094 72.3215 180.598 70.9355V75.44H182.015V58.3355H180.598V62.8085C180.094 61.4435 179.212 60.32 177.952 59.438C176.692 58.556 175.159 58.115 173.353 58.115C171.757 58.115 170.329 58.472 169.069 59.186C167.83 59.9 166.853 60.9185 166.139 62.2415ZM179.653 62.9345C180.283 64.0685 180.598 65.381 180.598 66.872C180.598 68.384 180.293 69.7175 179.684 70.8725C179.075 72.0065 178.225 72.8885 177.133 73.5185C176.062 74.1275 174.865 74.432 173.542 74.432C172.177 74.432 170.959 74.1275 169.888 73.5185C168.838 72.9095 168.019 72.038 167.431 70.904C166.843 69.77 166.549 68.426 166.549 66.872C166.549 65.318 166.843 63.974 167.431 62.84C168.019 61.706 168.838 60.845 169.888 60.257C170.938 59.648 172.156 59.3435 173.542 59.3435C174.865 59.3435 176.062 59.6585 177.133 60.2885C178.204 60.8975 179.044 61.7795 179.653 62.9345Z" fill="white"/>
<path d="M217.228 59.879C215.989 58.619 214.393 57.989 212.44 57.989C210.886 57.989 209.531 58.3985 208.376 59.2175C207.221 60.0155 206.444 61.202 206.045 62.777C205.625 61.202 204.848 60.0155 203.714 59.2175C202.601 58.3985 201.268 57.989 199.714 57.989C198.307 57.989 197.057 58.3355 195.965 59.0285C194.894 59.7005 194.117 60.7085 193.634 62.0525V58.3355H192.217V75.44H193.634V66.3365C193.634 64.0265 194.17 62.2625 195.241 61.0445C196.312 59.8265 197.729 59.2175 199.493 59.2175C201.194 59.2175 202.528 59.7635 203.494 60.8555C204.481 61.9265 204.974 63.4805 204.974 65.5175V75.44H206.36V66.3365C206.36 64.0265 206.896 62.2625 207.967 61.0445C209.038 59.8265 210.455 59.2175 212.219 59.2175C213.92 59.2175 215.254 59.7635 216.22 60.8555C217.207 61.9265 217.7 63.4805 217.7 65.5175V75.44H219.086V65.423C219.086 62.966 218.467 61.118 217.228 59.879Z" fill="white"/>
<path fill-rule="evenodd" clip-rule="evenodd" d="M229.314 62.2415C228.621 63.5645 228.274 65.108 228.274 66.872C228.274 68.636 228.621 70.19 229.314 71.534C230.028 72.857 231.004 73.886 232.243 74.621C233.503 75.335 234.931 75.692 236.527 75.692C238.312 75.692 239.835 75.251 241.095 74.369C242.376 73.466 243.268 72.3215 243.772 70.9355V75.44H245.19V58.3355H243.772V62.8085C243.268 61.4435 242.386 60.32 241.126 59.438C239.866 58.556 238.333 58.115 236.527 58.115C234.931 58.115 233.503 58.472 232.243 59.186C231.004 59.9 230.028 60.9185 229.314 62.2415ZM242.827 62.9345C243.457 64.0685 243.772 65.381 243.772 66.872C243.772 68.384 243.468 69.7175 242.859 70.8725C242.25 72.0065 241.399 72.8885 240.307 73.5185C239.236 74.1275 238.039 74.432 236.716 74.432C235.351 74.432 234.133 74.1275 233.062 73.5185C232.012 72.9095 231.193 72.038 230.605 70.904C230.017 69.77 229.723 68.426 229.723 66.872C229.723 65.318 230.017 63.974 230.605 62.84C231.193 61.706 232.012 60.845 233.062 60.257C234.112 59.648 235.33 59.3435 236.716 59.3435C238.039 59.3435 239.236 59.6585 240.307 60.2885C241.378 60.8975 242.218 61.7795 242.827 62.9345Z" fill="white"/>
<path fill-rule="evenodd" clip-rule="evenodd" d="M255.549 62.2415C254.856 63.5645 254.509 65.108 254.509 66.872C254.509 68.636 254.856 70.19 255.549 71.534C256.263 72.857 257.239 73.886 258.478 74.621C259.738 75.335 261.166 75.692 262.762 75.692C264.568 75.692 266.101 75.251 267.361 74.369C268.621 73.466 269.503 72.311 270.007 70.904V75.44H271.425V52.13H270.007V62.8085C269.482 61.4225 268.579 60.299 267.298 59.438C266.017 58.556 264.505 58.115 262.762 58.115C261.166 58.115 259.738 58.472 258.478 59.186C257.239 59.9 256.263 60.9185 255.549 62.2415ZM269.062 62.9345C269.692 64.0685 270.007 65.381 270.007 66.872C270.007 68.384 269.703 69.7175 269.094 70.8725C268.485 72.0065 267.634 72.8885 266.542 73.5185C265.471 74.1275 264.274 74.432 262.951 74.432C261.586 74.432 260.368 74.1275 259.297 73.5185C258.247 72.9095 257.428 72.038 256.84 70.904C256.252 69.77 255.958 68.426 255.958 66.872C255.958 65.318 256.252 63.974 256.84 62.84C257.428 61.706 258.247 60.845 259.297 60.257C260.347 59.648 261.565 59.3435 262.951 59.3435C264.274 59.3435 265.471 59.6585 266.542 60.2885C267.613 60.8975 268.453 61.7795 269.062 62.9345Z" fill="white"/>
<path fill-rule="evenodd" clip-rule="evenodd" d="M284.839 74.621C286.12 75.335 287.559 75.692 289.155 75.692C290.751 75.692 292.189 75.335 293.47 74.621C294.772 73.907 295.791 72.8885 296.526 71.5655C297.261 70.2215 297.628 68.657 297.628 66.872C297.628 65.087 297.261 63.533 296.526 62.21C295.812 60.887 294.814 59.879 293.533 59.186C292.252 58.472 290.814 58.115 289.218 58.115C287.622 58.115 286.173 58.472 284.871 59.186C283.59 59.879 282.582 60.8975 281.847 62.2415C281.112 63.5645 280.744 65.108 280.744 66.872C280.744 68.657 281.101 70.2215 281.815 71.5655C282.55 72.8885 283.558 73.907 284.839 74.621ZM292.62 73.613C291.549 74.159 290.394 74.432 289.155 74.432C287.916 74.432 286.761 74.159 285.69 73.613C284.64 73.046 283.789 72.1955 283.138 71.0615C282.508 69.9275 282.193 68.531 282.193 66.872C282.193 65.234 282.519 63.848 283.17 62.714C283.821 61.58 284.671 60.74 285.721 60.194C286.792 59.627 287.947 59.3435 289.186 59.3435C290.425 59.3435 291.58 59.627 292.651 60.194C293.722 60.74 294.583 61.58 295.234 62.714C295.885 63.848 296.211 65.234 296.211 66.872C296.211 68.531 295.885 69.9275 295.234 71.0615C294.583 72.1955 293.712 73.046 292.62 73.613Z" fill="white"/>
<path d="M310.623 58.997C309.552 59.648 308.806 60.6035 308.386 61.8635V58.3355H306.969V75.44H308.386V65.5805C308.386 63.4175 308.943 61.8635 310.056 60.9185C311.169 59.9525 312.565 59.4695 314.245 59.4695H314.718V57.989C313.059 57.989 311.694 58.325 310.623 58.997Z" fill="white"/>
<path d="M348.355 54.524V53.327H336.952V75.44H338.369V64.9505H347.095V63.7535H338.369V54.524H348.355Z" fill="white"/>
<path d="M371.616 75.44V58.3355H370.198V67.502C370.198 69.812 369.642 71.555 368.529 72.731C367.437 73.907 365.967 74.495 364.119 74.495C362.355 74.495 360.958 73.9595 359.929 72.8885C358.9 71.7965 358.386 70.232 358.386 68.195V58.3355H357V68.2895C357 70.7465 357.64 72.605 358.921 73.865C360.223 75.104 361.893 75.7235 363.93 75.7235C365.379 75.7235 366.66 75.3875 367.773 74.7155C368.907 74.0225 369.715 73.025 370.198 71.723V75.44H371.616Z" fill="white"/>
<path d="M383.241 75.44V52.13H381.823V75.44H383.241Z" fill="white"/>
<path d="M394.894 75.44V52.13H393.477V75.44H394.894Z" fill="white"/>
<path d="M407.777 74.9045C408.848 75.4085 410.097 75.6605 411.525 75.6605C412.974 75.6605 414.203 75.3875 415.211 74.8415C416.24 74.2745 417.017 73.55 417.542 72.668C418.067 71.786 418.329 70.8515 418.329 69.8645C418.329 68.5205 418.025 67.46 417.416 66.683C416.828 65.885 416.103 65.3075 415.242 64.9505C414.402 64.5725 413.258 64.184 411.809 63.785C410.507 63.449 409.467 63.1235 408.69 62.8085C407.934 62.4725 407.294 61.9895 406.769 61.3595C406.244 60.7085 405.981 59.8475 405.981 58.7765C405.981 57.4325 406.485 56.3615 407.493 55.5635C408.501 54.7445 409.74 54.335 411.21 54.335C412.302 54.335 413.237 54.5345 414.014 54.9335C414.812 55.3115 415.421 55.7945 415.841 56.3825C416.282 56.9705 416.565 57.548 416.691 58.115H418.203C417.972 56.708 417.258 55.5215 416.061 54.5555C414.864 53.5895 413.289 53.1065 411.336 53.1065C409.992 53.1065 408.806 53.3585 407.777 53.8625C406.748 54.3665 405.95 55.0595 405.383 55.9415C404.837 56.8025 404.564 57.758 404.564 58.808C404.564 60.173 404.858 61.2545 405.446 62.0525C406.055 62.8295 406.79 63.407 407.651 63.785C408.533 64.163 409.688 64.541 411.116 64.919C412.418 65.276 413.447 65.612 414.203 65.927C414.98 66.242 415.62 66.7145 416.124 67.3445C416.649 67.9745 416.912 68.825 416.912 69.896C416.912 70.736 416.691 71.5025 416.25 72.1955C415.809 72.8885 415.179 73.4345 414.36 73.8335C413.562 74.2325 412.617 74.432 411.525 74.432C409.656 74.432 408.26 73.9805 407.336 73.0775C406.433 72.1745 405.897 71.1455 405.729 69.9905H404.249C404.333 71.0405 404.669 71.996 405.257 72.857C405.866 73.718 406.706 74.4005 407.777 74.9045Z" fill="white"/>
<path d="M429.723 70.8725V59.564H434.795V58.3355H429.723V53.9885H428.306V58.3355H425.723V59.564H428.306V70.8725C428.306 72.5105 428.652 73.6865 429.345 74.4005C430.059 75.0935 431.162 75.44 432.653 75.44H434.795V74.18H432.873C431.697 74.18 430.878 73.949 430.416 73.487C429.954 73.004 429.723 72.1325 429.723 70.8725Z" fill="white"/>
<path fill-rule="evenodd" clip-rule="evenodd" d="M443.731 62.2415C443.038 63.5645 442.691 65.108 442.691 66.872C442.691 68.636 443.038 70.19 443.731 71.534C444.445 72.857 445.421 73.886 446.66 74.621C447.92 75.335 449.348 75.692 450.944 75.692C452.729 75.692 454.252 75.251 455.512 74.369C456.793 73.466 457.685 72.3215 458.189 70.9355V75.44H459.607V58.3355H458.189V62.8085C457.685 61.4435 456.803 60.32 455.543 59.438C454.283 58.556 452.75 58.115 450.944 58.115C449.348 58.115 447.92 58.472 446.66 59.186C445.421 59.9 444.445 60.9185 443.731 62.2415ZM457.244 62.9345C457.874 64.0685 458.189 65.381 458.189 66.872C458.189 68.384 457.885 69.7175 457.276 70.8725C456.667 72.0065 455.816 72.8885 454.724 73.5185C453.653 74.1275 452.456 74.432 451.133 74.432C449.768 74.432 448.55 74.1275 447.479 73.5185C446.429 72.9095 445.61 72.038 445.022 70.904C444.434 69.77 444.14 68.426 444.14 66.872C444.14 65.318 444.434 63.974 445.022 62.84C445.61 61.706 446.429 60.845 447.479 60.257C448.529 59.648 449.747 59.3435 451.133 59.3435C452.456 59.3435 453.653 59.6585 454.724 60.2885C455.795 60.8975 456.635 61.7795 457.244 62.9345Z" fill="white"/>
<path d="M469.965 62.21C469.272 63.533 468.926 65.087 468.926 66.872C468.926 68.657 469.272 70.2215 469.965 71.5655C470.679 72.8885 471.656 73.907 472.895 74.621C474.155 75.335 475.593 75.692 477.21 75.692C479.331 75.692 481.085 75.146 482.471 74.054C483.857 72.962 484.718 71.5235 485.054 69.7385H483.573C483.3 71.2085 482.586 72.3635 481.431 73.2035C480.297 74.0435 478.89 74.4635 477.21 74.4635C475.95 74.4635 474.806 74.18 473.777 73.613C472.748 73.046 471.918 72.1955 471.288 71.0615C470.679 69.9275 470.375 68.531 470.375 66.872C470.375 65.234 470.679 63.848 471.288 62.714C471.918 61.559 472.748 60.7085 473.777 60.1625C474.806 59.5955 475.95 59.312 477.21 59.312C478.89 59.312 480.297 59.732 481.431 60.572C482.586 61.412 483.3 62.567 483.573 64.037H485.054C484.718 62.231 483.857 60.7925 482.471 59.7215C481.106 58.6505 479.352 58.115 477.21 58.115C475.593 58.115 474.155 58.472 472.895 59.186C471.656 59.879 470.679 60.887 469.965 62.21Z" fill="white"/>
<path d="M495.83 67.5965L503.295 75.44H505.248L496.869 66.8405L505.154 58.3355H503.169L495.83 66.0845V52.13H494.412V75.44H495.83V67.5965Z" fill="white"/>
<path d="M27.6469 26.2105L0.336941 3H21.5642L48.75 26.2105L21.1031 49.7895H0L27.6469 26.2105Z" fill="#FF5252"/>
<path fill-rule="evenodd" clip-rule="evenodd" d="M21.1031 49.7895H0L27.6469 26.2105H48.75L21.1031 49.7895Z" fill="#4FC3F7"/>
<path d="M21.1031 49.7895H0L27.3099 73H48.5372L21.1031 49.7895Z" fill="#FFD54F"/>
</svg>
