<svg width="257" height="28" viewBox="0 0 257 28" fill="none" xmlns="http://www.w3.org/2000/svg">
<path d="M0.170455 27V0.818181H9.01705C11.0625 0.818181 12.7415 1.16761 14.054 1.86648C15.3665 2.55682 16.3381 3.5071 16.9688 4.71733C17.5994 5.92756 17.9148 7.30398 17.9148 8.84659C17.9148 10.3892 17.5994 11.7571 16.9688 12.9503C16.3381 14.1435 15.3707 15.081 14.0668 15.7628C12.7628 16.4361 11.0966 16.7727 9.06818 16.7727H1.90909V13.9091H8.96591C10.3636 13.9091 11.4886 13.7045 12.3409 13.2955C13.2017 12.8864 13.8239 12.3068 14.2074 11.5568C14.5994 10.7983 14.7955 9.89489 14.7955 8.84659C14.7955 7.79829 14.5994 6.8821 14.2074 6.09801C13.8153 5.31392 13.1889 4.70881 12.3281 4.28267C11.4673 3.84801 10.3295 3.63068 8.91477 3.63068H3.34091V27H0.170455ZM12.4943 15.2386L18.9375 27H15.2557L8.91477 15.2386H12.4943ZM30.555 27.4091C28.7823 27.4091 27.2269 26.9872 25.8888 26.1435C24.5593 25.2997 23.5195 24.1193 22.7695 22.6023C22.0281 21.0852 21.6573 19.3125 21.6573 17.2841C21.6573 15.2386 22.0281 13.4531 22.7695 11.9276C23.5195 10.402 24.5593 9.21733 25.8888 8.37358C27.2269 7.52983 28.7823 7.10795 30.555 7.10795C32.3278 7.10795 33.8789 7.52983 35.2085 8.37358C36.5465 9.21733 37.5863 10.402 38.3278 11.9276C39.0778 13.4531 39.4528 15.2386 39.4528 17.2841C39.4528 19.3125 39.0778 21.0852 38.3278 22.6023C37.5863 24.1193 36.5465 25.2997 35.2085 26.1435C33.8789 26.9872 32.3278 27.4091 30.555 27.4091ZM30.555 24.6989C31.9016 24.6989 33.0096 24.3537 33.8789 23.6634C34.7482 22.973 35.3917 22.0653 35.8093 20.9403C36.2269 19.8153 36.4357 18.5966 36.4357 17.2841C36.4357 15.9716 36.2269 14.7486 35.8093 13.6151C35.3917 12.4815 34.7482 11.5653 33.8789 10.8665C33.0096 10.1676 31.9016 9.81818 30.555 9.81818C29.2085 9.81818 28.1005 10.1676 27.2312 10.8665C26.3619 11.5653 25.7184 12.4815 25.3008 13.6151C24.8832 14.7486 24.6744 15.9716 24.6744 17.2841C24.6744 18.5966 24.8832 19.8153 25.3008 20.9403C25.7184 22.0653 26.3619 22.973 27.2312 23.6634C28.1005 24.3537 29.2085 24.6989 30.555 24.6989ZM44.4673 27V0.818181H47.4844V10.483H47.7401C47.9616 10.142 48.2685 9.70739 48.6605 9.17898C49.0611 8.64205 49.6321 8.16477 50.3736 7.74716C51.1236 7.32102 52.1378 7.10795 53.4162 7.10795C55.0696 7.10795 56.527 7.52131 57.7884 8.34801C59.0497 9.17472 60.0341 10.3466 60.7415 11.8636C61.4489 13.3807 61.8026 15.1705 61.8026 17.233C61.8026 19.3125 61.4489 21.1151 60.7415 22.6406C60.0341 24.1577 59.054 25.3338 57.8011 26.169C56.5483 26.9957 55.1037 27.4091 53.4673 27.4091C52.206 27.4091 51.196 27.2003 50.4375 26.7827C49.679 26.3565 49.0952 25.875 48.6861 25.3381C48.277 24.7926 47.9616 24.3409 47.7401 23.983H47.3821V27H44.4673ZM47.4332 17.1818C47.4332 18.6648 47.6506 19.973 48.0852 21.1065C48.5199 22.2315 49.1548 23.1136 49.9901 23.7528C50.8253 24.3835 51.848 24.6989 53.0582 24.6989C54.3196 24.6989 55.3722 24.3665 56.2159 23.7017C57.0682 23.0284 57.7074 22.125 58.1335 20.9915C58.5682 19.8494 58.7855 18.5795 58.7855 17.1818C58.7855 15.8011 58.5724 14.5568 58.1463 13.4489C57.7287 12.3324 57.0938 11.4503 56.2415 10.8026C55.3977 10.1463 54.3366 9.81818 53.0582 9.81818C51.831 9.81818 50.7997 10.1293 49.9645 10.7514C49.1293 11.3651 48.4986 12.2259 48.0724 13.3338C47.6463 14.4332 47.4332 15.7159 47.4332 17.1818ZM74.6506 27.4091C72.7585 27.4091 71.1264 26.9915 69.7543 26.1562C68.3906 25.3125 67.3381 24.1364 66.5966 22.6278C65.8636 21.1108 65.4972 19.3466 65.4972 17.3352C65.4972 15.3239 65.8636 13.5511 66.5966 12.017C67.3381 10.4744 68.3693 9.27273 69.6903 8.41193C71.0199 7.54261 72.571 7.10795 74.3438 7.10795C75.3665 7.10795 76.3764 7.27841 77.3736 7.61932C78.3707 7.96023 79.2784 8.5142 80.0966 9.28125C80.9148 10.0398 81.5668 11.0455 82.0526 12.2983C82.5384 13.5511 82.7812 15.0937 82.7812 16.9261V18.2045H67.6449V15.5966H79.7131C79.7131 14.4886 79.4915 13.5 79.0483 12.6307C78.6136 11.7614 77.9915 11.0753 77.1818 10.5724C76.3807 10.0696 75.4347 9.81818 74.3438 9.81818C73.142 9.81818 72.1023 10.1165 71.2244 10.7131C70.3551 11.3011 69.6861 12.0682 69.2173 13.0142C68.7486 13.9602 68.5142 14.9744 68.5142 16.0568V17.7955C68.5142 19.2784 68.7699 20.5355 69.2812 21.5668C69.8011 22.5895 70.5213 23.3693 71.4418 23.9062C72.3622 24.4347 73.4318 24.6989 74.6506 24.6989C75.4432 24.6989 76.1591 24.5881 76.7983 24.3665C77.446 24.1364 78.0043 23.7955 78.473 23.3438C78.9418 22.8835 79.304 22.3125 79.5597 21.6307L82.4744 22.4489C82.1676 23.4375 81.652 24.3068 80.9276 25.0568C80.2031 25.7983 79.3082 26.3778 78.2429 26.7955C77.1776 27.2045 75.9801 27.4091 74.6506 27.4091ZM87.3707 27V7.36364H90.2855V10.3295H90.4901C90.848 9.35795 91.4957 8.5696 92.4332 7.96449C93.3707 7.35937 94.4276 7.05682 95.6037 7.05682C95.8253 7.05682 96.1023 7.06108 96.4347 7.0696C96.767 7.07812 97.0185 7.09091 97.1889 7.10795V10.1761C97.0866 10.1506 96.8523 10.1122 96.4858 10.0611C96.1278 10.0014 95.7486 9.97159 95.348 9.97159C94.3935 9.97159 93.5412 10.1719 92.7912 10.5724C92.0497 10.9645 91.4616 11.5099 91.027 12.2088C90.6009 12.8991 90.3878 13.6875 90.3878 14.5739V27H87.3707ZM110.536 7.36364V9.92045H100.359V7.36364H110.536ZM103.325 2.65909H106.342V21.375C106.342 22.2273 106.466 22.8665 106.713 23.2926C106.969 23.7102 107.293 23.9915 107.685 24.1364C108.085 24.2727 108.507 24.3409 108.95 24.3409C109.283 24.3409 109.555 24.3239 109.768 24.2898C109.982 24.2472 110.152 24.2131 110.28 24.1875L110.893 26.8977C110.689 26.9744 110.403 27.0511 110.037 27.1278C109.67 27.2131 109.206 27.2557 108.643 27.2557C107.791 27.2557 106.956 27.0724 106.138 26.706C105.328 26.3395 104.655 25.7812 104.118 25.0312C103.589 24.2812 103.325 23.3352 103.325 22.1932V2.65909ZM122.84 27.4091C121.067 27.4091 119.512 26.9872 118.174 26.1435C116.844 25.2997 115.805 24.1193 115.055 22.6023C114.313 21.0852 113.942 19.3125 113.942 17.2841C113.942 15.2386 114.313 13.4531 115.055 11.9276C115.805 10.402 116.844 9.21733 118.174 8.37358C119.512 7.52983 121.067 7.10795 122.84 7.10795C124.613 7.10795 126.164 7.52983 127.494 8.37358C128.832 9.21733 129.871 10.402 130.613 11.9276C131.363 13.4531 131.738 15.2386 131.738 17.2841C131.738 19.3125 131.363 21.0852 130.613 22.6023C129.871 24.1193 128.832 25.2997 127.494 26.1435C126.164 26.9872 124.613 27.4091 122.84 27.4091ZM122.84 24.6989C124.187 24.6989 125.295 24.3537 126.164 23.6634C127.033 22.973 127.677 22.0653 128.094 20.9403C128.512 19.8153 128.721 18.5966 128.721 17.2841C128.721 15.9716 128.512 14.7486 128.094 13.6151C127.677 12.4815 127.033 11.5653 126.164 10.8665C125.295 10.1676 124.187 9.81818 122.84 9.81818C121.494 9.81818 120.386 10.1676 119.516 10.8665C118.647 11.5653 118.004 12.4815 117.586 13.6151C117.168 14.7486 116.96 15.9716 116.96 17.2841C116.96 18.5966 117.168 19.8153 117.586 20.9403C118.004 22.0653 118.647 22.973 119.516 23.6634C120.386 24.3537 121.494 24.6989 122.84 24.6989ZM146.877 0.818181H150.662L159.559 22.5511H159.866L168.764 0.818181H172.548V27H169.582V7.10795H169.326L161.145 27H158.281L150.099 7.10795H149.843V27H146.877V0.818181ZM184.274 27.4602C183.03 27.4602 181.901 27.2259 180.886 26.7571C179.872 26.2798 179.067 25.5938 178.47 24.6989C177.874 23.7955 177.575 22.7045 177.575 21.4261C177.575 20.3011 177.797 19.3892 178.24 18.6903C178.683 17.983 179.276 17.429 180.017 17.0284C180.759 16.6278 181.577 16.3295 182.472 16.1335C183.375 15.929 184.283 15.767 185.195 15.6477C186.388 15.4943 187.355 15.3793 188.097 15.3026C188.847 15.2173 189.392 15.0767 189.733 14.8807C190.082 14.6847 190.257 14.3437 190.257 13.858V13.7557C190.257 12.4943 189.912 11.5142 189.222 10.8153C188.54 10.1165 187.504 9.76705 186.115 9.76705C184.675 9.76705 183.545 10.0824 182.727 10.7131C181.909 11.3437 181.334 12.017 181.001 12.733L178.138 11.7102C178.649 10.517 179.331 9.58807 180.183 8.9233C181.044 8.25 181.982 7.78125 182.996 7.51705C184.018 7.24432 185.024 7.10795 186.013 7.10795C186.643 7.10795 187.368 7.18466 188.186 7.33807C189.013 7.48295 189.81 7.78551 190.577 8.24574C191.352 8.70597 191.996 9.40057 192.507 10.3295C193.018 11.2585 193.274 12.5028 193.274 14.0625V27H190.257V24.3409H190.104C189.899 24.767 189.558 25.223 189.081 25.7088C188.604 26.1946 187.969 26.608 187.176 26.9489C186.384 27.2898 185.416 27.4602 184.274 27.4602ZM184.734 24.75C185.928 24.75 186.933 24.5156 187.751 24.0469C188.578 23.5781 189.2 22.973 189.618 22.2315C190.044 21.4901 190.257 20.7102 190.257 19.892V17.1307C190.129 17.2841 189.848 17.4247 189.413 17.5526C188.987 17.6719 188.493 17.7784 187.93 17.8722C187.376 17.9574 186.835 18.0341 186.307 18.1023C185.787 18.1619 185.365 18.2131 185.041 18.2557C184.257 18.358 183.524 18.5241 182.842 18.7543C182.169 18.9759 181.624 19.3125 181.206 19.7642C180.797 20.2074 180.592 20.8125 180.592 21.5795C180.592 22.6278 180.98 23.4205 181.756 23.9574C182.54 24.4858 183.533 24.75 184.734 24.75ZM198.781 27V7.36364H201.696V10.3295H201.9C202.258 9.35795 202.906 8.5696 203.843 7.96449C204.781 7.35937 205.838 7.05682 207.014 7.05682C207.235 7.05682 207.512 7.06108 207.845 7.0696C208.177 7.07812 208.429 7.09091 208.599 7.10795V10.1761C208.497 10.1506 208.262 10.1122 207.896 10.0611C207.538 10.0014 207.159 9.97159 206.758 9.97159C205.804 9.97159 204.951 10.1719 204.201 10.5724C203.46 10.9645 202.872 11.5099 202.437 12.2088C202.011 12.8991 201.798 13.6875 201.798 14.5739V27H198.781ZM212.175 27V7.36364H215.192V27H212.175ZM213.71 4.09091C213.121 4.09091 212.614 3.89062 212.188 3.49006C211.771 3.08949 211.562 2.60795 211.562 2.04545C211.562 1.48295 211.771 1.00142 212.188 0.600851C212.614 0.200284 213.121 0 213.71 0C214.298 0 214.8 0.200284 215.218 0.600851C215.644 1.00142 215.857 1.48295 215.857 2.04545C215.857 2.60795 215.644 3.08949 215.218 3.49006C214.8 3.89062 214.298 4.09091 213.71 4.09091ZM223.735 15.1875V27H220.718V7.36364H223.633V10.4318H223.889C224.349 9.43466 225.048 8.63352 225.985 8.02841C226.923 7.41477 228.133 7.10795 229.616 7.10795C230.946 7.10795 232.109 7.38068 233.106 7.92614C234.103 8.46307 234.879 9.28125 235.433 10.3807C235.987 11.4716 236.264 12.8523 236.264 14.5227V27H233.247V14.7273C233.247 13.1847 232.846 11.983 232.045 11.1222C231.244 10.2528 230.145 9.81818 228.747 9.81818C227.784 9.81818 226.923 10.027 226.164 10.4446C225.414 10.8622 224.822 11.4716 224.387 12.2727C223.953 13.0739 223.735 14.0455 223.735 15.1875ZM255.686 11.7614L252.976 12.5284C252.805 12.0767 252.554 11.6378 252.222 11.2116C251.898 10.777 251.455 10.419 250.892 10.1378C250.33 9.85653 249.609 9.71591 248.732 9.71591C247.53 9.71591 246.528 9.9929 245.727 10.5469C244.935 11.0923 244.538 11.7869 244.538 12.6307C244.538 13.3807 244.811 13.973 245.357 14.4077C245.902 14.8423 246.754 15.2045 247.913 15.4943L250.828 16.2102C252.584 16.6364 253.892 17.2884 254.753 18.1662C255.614 19.0355 256.044 20.1562 256.044 21.5284C256.044 22.6534 255.72 23.6591 255.072 24.5455C254.433 25.4318 253.538 26.1307 252.388 26.642C251.237 27.1534 249.899 27.4091 248.374 27.4091C246.371 27.4091 244.713 26.9744 243.401 26.1051C242.088 25.2358 241.257 23.9659 240.908 22.2955L243.771 21.5795C244.044 22.6364 244.56 23.429 245.318 23.9574C246.085 24.4858 247.087 24.75 248.322 24.75C249.729 24.75 250.845 24.4517 251.672 23.8551C252.507 23.25 252.925 22.5256 252.925 21.6818C252.925 21 252.686 20.429 252.209 19.9688C251.732 19.5 250.999 19.1506 250.01 18.9205L246.737 18.1534C244.939 17.7273 243.618 17.0668 242.774 16.1719C241.939 15.2685 241.521 14.1392 241.521 12.7841C241.521 11.6761 241.832 10.696 242.455 9.84375C243.085 8.99148 243.942 8.32244 245.024 7.83665C246.115 7.35085 247.351 7.10795 248.732 7.10795C250.675 7.10795 252.2 7.53409 253.308 8.38636C254.425 9.23864 255.217 10.3636 255.686 11.7614Z" fill="white"/>
</svg>